<svg xmlns="http://www.w3.org/2000/svg" viewBox="0 0 500 500"><path d="M42.6 321.2c-1.57 1.22-1.4 3 .51 4.06L148 385.8a8.5 8.5 0 0 0 7.63 0l200.31-115.69c1.94-1.12 2.1-2.88.45-4.1a8.5 8.5 0 0 1 3.36 6.31v5A8.41 8.41 0 0 1 356 284L155.59 399.64a8.41 8.41 0 0 1-7.63 0L43.12 339.12a8.38 8.38 0 0 1-3.81-6.61v-5.05a8.53 8.53 0 0 1 3.29-6.26Z" style="fill:#263238"/><path d="M43.11 325.26 148 385.8a8.5 8.5 0 0 0 7.63 0l200.31-115.69c2.1-1.21 2.11-3.19 0-4.4L251.1 205.18a8.47 8.47 0 0 0-7.63 0L43.11 320.86c-2.11 1.22-2.11 3.19 0 4.4Zm184.24-104.43c1.8-1 3.68-.44 5.48.61l95.33 55c1.8 1 1.81 2.73 0 3.77l-156 90.07a7.28 7.28 0 0 1-6.54 0L70.3 315.27c-1.81-1-1.81-2.73 0-3.77Z" style="fill:#455a64"/><path d="M356.39 266a8.5 8.5 0 0 1 3.36 6.31v5A8.43 8.43 0 0 1 356 284L155.59 399.64a7.91 7.91 0 0 1-3.82.92V386.7a7.87 7.87 0 0 0 3.82-.91l200.35-115.68c1.94-1.11 2.06-2.88.45-4.11Z" style="fill:#37474f"/><path d="M293.46 241.39c-1.41-.82-1.41-2.14 0-2.95a5.64 5.64 0 0 1 5.12 0c1.41.81 1.41 2.13 0 2.95a5.7 5.7 0 0 1-5.12 0Z"/><path d="M105.44 354a12.81 12.81 0 0 1-6.27-1.5c-1.77-1-2.74-2.41-2.74-3.9s1-2.89 2.74-3.91a13.85 13.85 0 0 1 12.54 0c1.77 1 2.74 2.41 2.74 3.91s-1 2.88-2.74 3.9a12.81 12.81 0 0 1-6.27 1.5Zm0-9.82a11.89 11.89 0 0 0-5.77 1.37c-1.45.84-2.24 1.92-2.24 3.05s.79 2.2 2.24 3a12.78 12.78 0 0 0 11.54 0c1.44-.84 2.24-1.92 2.24-3s-.8-2.21-2.24-3.05a11.89 11.89 0 0 0-5.77-1.35Z" style="fill:#e6e6e6"/><path d="m296 251.18-19.74-11.39c-1.17-.68-1.23-1.75-.13-2.39a4.56 4.56 0 0 1 4.13.08L300 248.87c1.18.68 1.23 1.75.13 2.39a4.56 4.56 0 0 1-4.13-.08Z"/><path d="M227.35 220.83c1.8-1 3.68-.44 5.48.61l95.33 55c1.8 1 1.81 2.73 0 3.77l-156 90.07a7.28 7.28 0 0 1-6.54 0L70.3 315.27c-1.81-1-1.81-2.73 0-3.77Z" style="fill:#2dd4bf"/><path d="M227.35 220.83c1.8-1 3.68-.44 5.48.61l95.33 55c1.8 1 1.81 2.73 0 3.77l-156 90.07a7.28 7.28 0 0 1-6.54 0L70.3 315.27c-1.81-1-1.81-2.73 0-3.77Z" style="fill:#fff;opacity:.8"/><path d="m97.73 303.26 6.63-3.79s3.18-17.52.8-32.58c-3.34-21.17-17.76-28.47-23-26.37s-6.46 8.38 3 20.61c5.57 7.22 12.75 22.48 12.57 42.13Z" style="fill:#2dd4bf"/><path d="m97.73 303.26 6.63-3.79s3.18-17.52.8-32.58c-3.34-21.17-17.76-28.47-23-26.37s-6.46 8.38 3 20.61c5.57 7.22 12.75 22.48 12.57 42.13Z" style="opacity:.30000000000000004"/><path d="M100.13 294.85h-.06a.49.49 0 0 1-.41-.54c2.74-19.82-5.23-41.54-14.19-50.29a.47.47 0 0 1 .66-.68c9.12 8.92 17.25 31 14.47 51.1a.47.47 0 0 1-.47.41Z" style="fill:#fff"/><path d="M79.34 313.88c-1 .6-3.21-.71-4-1.26A10 10 0 0 1 72 308.8a9.33 9.33 0 0 1-.83-5.63 22.38 22.38 0 0 1 .71-3l.84-2.9a7.37 7.37 0 0 0 .42-2.93c-.25-2-2-3.38-3.62-4.58-1.77-1.32-3.62-3.07-3.61-5.46a8.46 8.46 0 0 1 2.11-5c1.14-1.45 2.5-2.73 3.53-4.25a5.88 5.88 0 0 0 1.21-3.72 6.24 6.24 0 0 0-.81-2.32 31.94 31.94 0 0 1-2.54-4.66c-.58-1.67-.5-3.75.8-4.94a5.49 5.49 0 0 1 4.12-1 9.47 9.47 0 0 1 3.82 1.35c3.8 2.11 6 6.6 10 8.23a40.37 40.37 0 0 0 4.85 1.16 6 6 0 0 1 4 2.75c1.47 3-1.27 6.59-.23 9.73.92 2.77 3.62 3.83 5.13 6.33a6 6 0 0 1 .71 3.64 17.51 17.51 0 0 1-1.53 6.13 44.4 44.4 0 0 1-3.37 5.53c-.04.06-18.21 10.53-18.37 10.62Z" style="fill:#2dd4bf"/><path d="M79.34 313.88c-1 .6-3.21-.71-4-1.26A10 10 0 0 1 72 308.8a9.33 9.33 0 0 1-.83-5.63 22.38 22.38 0 0 1 .71-3l.84-2.9a7.37 7.37 0 0 0 .42-2.93c-.25-2-2-3.38-3.62-4.58-1.77-1.32-3.62-3.07-3.61-5.46a8.46 8.46 0 0 1 2.11-5c1.14-1.45 2.5-2.73 3.53-4.25a5.88 5.88 0 0 0 1.21-3.72 6.24 6.24 0 0 0-.81-2.32 31.94 31.94 0 0 1-2.54-4.66c-.58-1.67-.5-3.75.8-4.94a5.49 5.49 0 0 1 4.12-1 9.47 9.47 0 0 1 3.82 1.35c3.8 2.11 6 6.6 10 8.23a40.37 40.37 0 0 0 4.85 1.16 6 6 0 0 1 4 2.75c1.47 3-1.27 6.59-.23 9.73.92 2.77 3.62 3.83 5.13 6.33a6 6 0 0 1 .71 3.64 17.51 17.51 0 0 1-1.53 6.13 44.4 44.4 0 0 1-3.37 5.53c-.04.06-18.21 10.53-18.37 10.62Z" style="opacity:.15"/><path d="M90.1 308.15a.47.47 0 0 1-.46-.49c.78-18.76-8.06-39.48-14.49-45.5a.46.46 0 0 1 0-.66.47.47 0 0 1 .66 0c6.56 6.14 15.58 27.2 14.79 46.23a.47.47 0 0 1-.5.42Z" style="fill:#fff"/><path d="M87.29 286a.32.32 0 0 1-.14 0 63.33 63.33 0 0 0-13.62-2.19.48.48 0 0 1 0-.95 65.16 65.16 0 0 1 13.86 2.24.47.47 0 0 1-.14.92Z" style="fill:#fff"/><path d="m160.58 132.9-12.23-7.06c-.55-.31-.94-.39-1.16-.27l-1.49.87c-.26.14-.25.59.08 1.27l3 6.16-2.22 2a1.73 1.73 0 0 0 .33 2.94l12.22 7.06 1.5-.86Z" style="fill:#2dd4bf"/><path d="m160.58 132.9-12.23-7.06c-.55-.31-.94-.39-1.16-.27l-1.49.87c-.26.14-.25.59.08 1.27l3 6.16-2.22 2a1.73 1.73 0 0 0 .33 2.94l12.22 7.06 1.5-.86Z" style="fill:#fff;opacity:.5"/><path d="M146.86 126.71c-1.2-.7-1.68-.25-1.08 1l3 6.16-2.22 2a1.73 1.73 0 0 0 .33 2.94l12.22 7.06v-12.11Z" style="fill:#2dd4bf"/><path d="M160.52 171.81a1.45 1.45 0 0 1-1.44-1.44v-40.62a1.44 1.44 0 0 1 2.88 0v40.62a1.45 1.45 0 0 1-1.44 1.44Z" style="fill:#e0e0e0"/><path d="M102.65 314.67v-2.54h.62a10 10 0 0 1 4.11-4c6.32-3.65 16.56-3.65 22.88 0a10 10 0 0 1 4.11 4h.63v2.46c0 2.43-1.52 4.86-4.73 6.72-6.32 3.64-16.56 3.64-22.88 0-3.18-1.83-4.76-4.24-4.74-6.64Z" style="fill:#263238"/><ellipse cx="118.82" cy="312.13" rx="16.18" ry="9.34" style="fill:#455a64"/><path d="M123 186.44V311a2.07 2.07 0 0 1-1.22 1.7 6.5 6.5 0 0 1-5.89 0 2.07 2.07 0 0 1-1.22-1.7V186.44Z" style="fill:#37474f"/><path d="M114.66 196.95v8.17l8.33 4.8v-8.15l-8.33-4.82z" style="fill:#263238"/><path d="m150.11 181.7 15.4 8.9a1.11 1.11 0 0 1-.3.31l-26.94 15.55c-.23.13-.41 0-.41-.24v-19.41a30.31 30.31 0 0 1 2.25-10.88Z" style="fill:#37474f"/><path d="M165.63 169v21.72l-25.51-14.73a2 2 0 0 1 .08-.22c2.74-6.83 7.35-12.63 12.35-15.5a11.65 11.65 0 0 1 5.77-1.79c4.51-.05 7.31 3.98 7.31 10.52ZM193.34 214.92V213h-.18v.27a8.7 8.7 0 0 0-.51-1.57 14.65 14.65 0 0 0-6.44-6.54L168 194.61a3 3 0 0 0-2.75 0l-27.89 16.09a3.85 3.85 0 0 1-.89-1v2a1 1 0 0 0 .57.8l18.23 10.5a34.86 34.86 0 0 0 17.44 4.12 30.32 30.32 0 0 0 14.51-3.53c4.1-2.36 6.12-5.48 6.12-8.67Z" style="fill:#263238"/><path d="M192.65 211.68a14.65 14.65 0 0 0-6.44-6.54L168 194.61a3 3 0 0 0-2.75 0l-27.89 16.09 17.91 10.35a34.86 34.86 0 0 0 17.44 4.12 30.32 30.32 0 0 0 14.51-3.53c3.68-2.12 5.69-4.85 6.06-7.7a8.32 8.32 0 0 0-.63-2.26Z" style="fill:#455a64"/><path d="M193.28 213.94a8.32 8.32 0 0 0-.63-2.26 14.65 14.65 0 0 0-6.44-6.54L168 194.61a3 3 0 0 0-2.75 0l-27.89 16.09-.32-.18a.83.83 0 0 1 0-1.58l28.19-16.28a3 3 0 0 1 2.75 0l18.23 10.52c3.28 1.9 5.42 4.18 6.44 6.55a8.49 8.49 0 0 1 .65 2.4 7.82 7.82 0 0 1-.02 1.81Z" style="fill:#37474f"/><path d="m137.65 208.66 28.19-16.28-.62-1.47-26.94 15.56-.63 2.19z" style="fill:#455a64"/><path d="M163.15 167.66a1.5 1.5 0 0 0-.67-1.17l-34.33-19.81a1.44 1.44 0 0 0-1.34 0l-.76.43a1.5 1.5 0 0 0-.67 1.16v26.32a1.5 1.5 0 0 0 .67 1.16l34.33 19.81a1.44 1.44 0 0 0 1.34 0l.76-.43a1.51 1.51 0 0 0 .67-1.16Z" style="fill:#2dd4bf"/><path d="m163 167-1.9 1.1-35.47-20.48a1.42 1.42 0 0 1 .47-.5l.76-.43a1.44 1.44 0 0 1 1.34 0l34.32 19.81a1.44 1.44 0 0 1 .48.5Z" style="opacity:.35000000000000003"/><path d="M160.89 195.71Z" style="fill:#2dd4bf"/><path d="m161.05 168.09-.35.21a.58.58 0 0 1 .35.57v26.31a.46.46 0 0 1-.21.44.44.44 0 0 1-.32 0l-.14-.06-34.33-19.82a1.5 1.5 0 0 1-.67-1.16v-26.3a1.4 1.4 0 0 1 .2-.67Z" style="opacity:.2"/><path d="m161.05 168.09-15.9 5.91a2.6 2.6 0 0 1-3.07-1l-2.55-3.91-14.08-21.57L139 169.26l-13.64 5.34a1.49 1.49 0 0 0 .21.67l13.47-6 3 4.75a2.58 2.58 0 0 0 3.23 1l2.11-.93 13.47 21.49a.46.46 0 0 0 .21-.44v-.44l-13.62-20.6Z" style="opacity:.2"/><path d="M155 172.31a1.47 1.47 0 0 0-.67-1.16L120 151.33a1.53 1.53 0 0 0-1.35 0l-.75.44a1.47 1.47 0 0 0-.67 1.16v26.31a1.47 1.47 0 0 0 .67 1.16l34.32 19.82a1.5 1.5 0 0 0 1.34 0l.76-.44a1.47 1.47 0 0 0 .67-1.16Z" style="fill:#2dd4bf"/><path d="m154.83 171.65-1.91 1.1-35.47-20.48a1.44 1.44 0 0 1 .48-.5l.76-.44a1.5 1.5 0 0 1 1.34 0l34.32 19.82a1.36 1.36 0 0 1 .48.5Z" style="opacity:.35000000000000003"/><path d="M152.77 200.37Z" style="fill:#2dd4bf"/><path d="m152.93 172.75-.35.21a.58.58 0 0 1 .35.57v26.31a.46.46 0 0 1-.21.44.44.44 0 0 1-.32 0l-.14-.06-34.33-19.82a1.5 1.5 0 0 1-.67-1.16v-26.3a1.4 1.4 0 0 1 .2-.67Z" style="opacity:.2"/><path d="M152.92 172.75 137 178.69a2.59 2.59 0 0 1-3.07-1l-2.55-3.91-14.05-21.58 13.57 21.71-13.64 5.34a1.32 1.32 0 0 0 .21.67l13.47-5.92 3 4.74a2.59 2.59 0 0 0 3.24 1l2.11-.94 13.47 21.5a.49.49 0 0 0 .2-.45v-.43l-13.6-20.64Z" style="opacity:.2"/><path d="M146.9 177a1.47 1.47 0 0 0-.67-1.16L111.9 156a1.47 1.47 0 0 0-1.34 0l-.76.44a1.47 1.47 0 0 0-.67 1.16v26.3a1.49 1.49 0 0 0 .67 1.16l34.33 19.82a1.5 1.5 0 0 0 1.34 0l.76-.44a1.49 1.49 0 0 0 .67-1.16Z" style="fill:#2dd4bf"/><path d="m146.7 176.31-1.9 1.1-35.47-20.48a1.34 1.34 0 0 1 .47-.5l.76-.44a1.44 1.44 0 0 1 1.34 0l34.33 19.82a1.34 1.34 0 0 1 .47.5Z" style="opacity:.35000000000000003"/><path d="M144.64 205Z" style="fill:#2dd4bf"/><path d="m144.8 177.4-.35.21a.58.58 0 0 1 .35.57v26.31a.46.46 0 0 1-.21.44.44.44 0 0 1-.32 0l-.14-.06-34.33-19.81a1.5 1.5 0 0 1-.67-1.16v-26.31a1.4 1.4 0 0 1 .2-.67Z" style="opacity:.2"/><path d="m144.8 177.41-15.9 5.93a2.56 2.56 0 0 1-3.06-1l-2.56-3.92-14.08-21.57 13.57 21.72-13.64 5.34a1.54 1.54 0 0 0 .21.67l13.47-6 3 4.75a2.58 2.58 0 0 0 3.23 1l2.11-.93 13.47 21.49a.46.46 0 0 0 .21-.44v-.44l-13.61-20.64Z" style="opacity:.2"/><path d="M162.06 157.73c-2.73-1.43-6.35-1.18-10.31 1.11-4.45 2.56-8.46 7.19-11.27 12.51a39.18 39.18 0 0 0-1.76 3.78 31.9 31.9 0 0 0-2.45 11.68V209a2.89 2.89 0 0 1-1.37-.33l-48.83-28.25A3.07 3.07 0 0 1 84.7 178v-21c0-10.52 6.93-23 15.47-28 4-2.34 7.73-2.53 10.49-1Z" style="fill:#455a64"/><path d="M138.72 175.13a31.9 31.9 0 0 0-2.45 11.68V209a2.73 2.73 0 0 1-.5-.05v-22.13c0-16.32 12.55-26.69 16-28-4.45 2.56-8.46 7.19-11.27 12.51a39.18 39.18 0 0 0-1.78 3.8Z" style="fill:#37474f"/><path d="M138.28 206.46c-.23.14-.42 0-.42-.23v-19.42a30.28 30.28 0 0 1 2.26-10.87 2 2 0 0 1 .08-.22 36.4 36.4 0 0 1 1.88-4c2.74-5.06 6.48-9.22 10.47-11.51a11.65 11.65 0 0 1 5.77-1.79 6.38 6.38 0 0 1 3 .73c2.69 1.44 4.27 4.92 4.27 9.79v21.24a.9.9 0 0 1-.41.72l.62 1.47.14-.09a2.46 2.46 0 0 0 .57-.55 3 3 0 0 0 .66-1.74V169c0-5.63-2-9.55-5.15-11.21-2.74-1.44-6.35-1.19-10.32 1.1-4.44 2.56-8.45 7.19-11.27 12.51a39.09 39.09 0 0 0-1.75 3.78 31.9 31.9 0 0 0-2.45 11.68V209h.24a2.75 2.75 0 0 0 1.13-.32Z" style="fill:#455a64"/><path d="M396.74 226.81a1.39 1.39 0 0 0-.63-1.1L363.69 207a1.42 1.42 0 0 0-1.27 0l-.71.42a1.4 1.4 0 0 0-.64 1.09v24.85a1.4 1.4 0 0 0 .64 1.1l32.42 18.72a1.4 1.4 0 0 0 1.26 0l.72-.42a1.39 1.39 0 0 0 .63-1.09Z" style="fill:#2dd4bf"/><path d="m396.56 226.18-1.8 1-33.5-19.34a1.3 1.3 0 0 1 .45-.48l.71-.41a1.42 1.42 0 0 1 1.27 0l32.42 18.72a1.45 1.45 0 0 1 .45.51Z" style="fill:#fff;opacity:.4"/><path d="M396.74 226.81v24.85a1.39 1.39 0 0 1-.63 1.09l-.72.42-.17.08-.26.06a1.68 1.68 0 0 1-.5 0h-.12a.13.13 0 0 1-.08 0 .35.35 0 0 0 .3 0 .44.44 0 0 0 .2-.42V228a.55.55 0 0 0-.33-.54l.33-.19 1.8-1a1.37 1.37 0 0 1 .18.54Z" style="opacity:.2"/><path d="m394.76 227.22-15 5.61a2.45 2.45 0 0 1-2.9-1l-2.41-3.7-13.3-20.37L374 228.32l-12.89 5a1.41 1.41 0 0 0 .2.64l12.69-5.58 2.81 4.48a2.43 2.43 0 0 0 3.05.94l2-.88 12.71 20.3a.44.44 0 0 0 .2-.42v-.41l-12.85-19.5Z" style="opacity:.2"/><path d="m367.09 179.57-14.87-26.84s-16.53-20.64-10.06-29.2c8.82-.81 16.62.73 24 15 8.29 15.91 12.23 27.43 16.54 37.8 1.19 2.87 1.07 17 .79 27.69-.18 7 .24 14.59.24 14.59l-5.6-3.23a8.65 8.65 0 0 0-4.21-1.16h-1.4a12.84 12.84 0 0 0-3 5.13c-.89 4-3.08 5.24-4.26 4.3-.57-.46-1-2.82.33-8.42 1.08-4.6 5.27-9.1 4.72-12.62Z" style="fill:#ffa8a7"/><path d="M342.16 123.53s5.62-1.26 9.84.16 7.18 3.07 11.69 9.79 14.51 30.18 14.51 30.18-1.21 6.46-16 8.78l-14.74-23.73Z" style="fill:#37474f"/><path d="m319.11 116.05 2.97 18.73 18.58-.99-2.66-21.78-18.89 4.04z" style="fill:#ffa8a7"/><path d="M306.62 93.05s-4.43 6.72-3.92 7.38 3.76 1.26 3.76 1.26Z" style="fill:#f28f8f"/><path d="M318.92 74.47c-9 1.89-11.55 5.83-12.4 20.06-.88 14.87.64 19.55 2.59 21.55 1.32 1.35 8.65 1.6 12.35.58 4.63-1.28 15.09-5 20-12.47 5.76-8.8 7.27-20.73 1.1-25.62-8.69-6.89-20-4.87-23.64-4.1Z" style="fill:#ffa8a7"/><path d="M319.28 117.07a37.3 37.3 0 0 0 4.72-1.19 8.37 8.37 0 0 1-4.5 2.6Z" style="fill:#f28f8f"/><path d="M304.71 80a12.59 12.59 0 0 0 2.29 1.78 31.71 31.71 0 0 0 3.74 2.07 21.6 21.6 0 0 1 3.64 1.71c1.63 1.16 1.84 2.69 1.88 4.56v4.39c0 2.47 1.6 4.34 2.37 1 0 0 1.42-5.49 6.05-4.8s5 5.91 2.84 10c-1.35 2.49-4.95 1.84-4.95 1.84a16.21 16.21 0 0 0 4.84 12.47s3.57 1.08 10.86-.47c4.48-1 8.78-5.89 11.44-11.82 5.63-12.54 6-23.83-2-27.21-.87-5.78-5.42-8.37-10.6-9.56-7.76-1.78-15 2.82-22.69 1.11a36.74 36.74 0 0 1-3.74-1 2.09 2.09 0 0 0-1.51-.1 1.71 1.71 0 0 0-.73 1.71 4.64 4.64 0 0 0 2.26 3.64c-.16-.09-.91.11-1.11.12-.43 0-.86 0-1.29.05a23.53 23.53 0 0 1-2.52-.18 4.62 4.62 0 0 0-1.74.06 3.14 3.14 0 0 0-2 3.16 7.75 7.75 0 0 0 1.38 3.72 11.3 11.3 0 0 0 .93 1.33c.16.17.26.28.36.42Z" style="fill:#263238"/><path d="m347.91 77.5 5.36-3.16a3.11 3.11 0 0 0-5.36 3.16ZM352.91 355.79 353 357a21.85 21.85 0 0 1 .12 4.78c-.13 1.1-.45 2.59-1.47 3.19a12.88 12.88 0 0 1-3.5 1.37 12.25 12.25 0 0 1-8.11-.8c-2.1-1-3.75-2.62-6-3.26a45.32 45.32 0 0 0-7.16-1.18 16.14 16.14 0 0 1-3.16-.58 15 15 0 0 1-2.28-1 22.46 22.46 0 0 1-6.77-4.94 10.72 10.72 0 0 1-2.41-4.83c-.21-1.05-.64-4.09 1.12-4 8.62.39 17.15 2.24 25.78 2.14a9.45 9.45 0 0 1 1.68.07 7 7 0 0 1 2.89 1.35 3 3 0 0 0 2.65.65 13.16 13.16 0 0 1 4.47.06 2.11 2.11 0 0 1 1.54 1 2.35 2.35 0 0 1 .13.65c.12 1.33.26 2.74.39 4.12Z" style="fill:#263238"/><path d="m352 345.46-.44 6.5c-.42 2.47-8.85 4-10.59-.39l-.83-7.37Z" style="fill:#ffa8a7"/><path d="M320 371.16s1 3.38 1.56 6.33c.42 2.34 1 6.25.16 8s-4.07 2.8-9 2.65c-3.2-.1-8.23 2-11.69 3.79s-10.92 2.51-14.64 2c-4.39-.62-8.88-3.27-9.55-5.11s.32-3.7 10.77-7.88c.1 0 14.51-4.37 19.65-9.79Z" style="fill:#263238"/><path d="M320.05 367s-.08 2.86-.11 4.5-2 4-7 3.74c-3.51-.21-5.94-1.21-5.73-4.1l.09-4.17Z" style="fill:#ffa8a7"/><path d="M355.43 295.56c-1.48-12.65-2.59-19.89-2.59-19.89s.25-17.61 1.29-34c1.11-17.74.86-40.08 1.3-44.5 0 0-57-12.17-57.46 8.38-.54 23.88 1 73.29 1.39 79.72.48 9 .5 18.43 2 33.08 1.51 14.47 5.9 48.65 5.9 48.65 6.47 3.69 12.76 0 12.76 0s4.95-41 4.76-51.37a142.77 142.77 0 0 0-2.16-22.52l4.49-46.35s1.76 14.33 2.24 23.36 1.71 14.55 3.94 31.35c1.94 14.59 6.85 45.36 6.85 45.36a11.52 11.52 0 0 0 12.12-.48s4.65-38.14 3.17-50.79Z" style="fill:#2dd4bf"/><path d="M348.82 225.19s-3.95 6.51-15.93 11.29l-3.34 11.19-.36 19.67c-.46-6.34-1.16-13.26-2.05-20.59l1.35-11.53s13.23-4.01 20.33-10.03Z" style="opacity:.15"/><path d="M357.62 135.52c-2.29-8.14-7.66-11.74-13.63-12.12-1.52-.1-4.6 0-4.6 0 .42 3.45-10.21 5.89-18.48 3.94-2.49.66-6.62 1.59-8.7 2.28-5.94 2-13.07 9.41-14 28.8 0 0-.94 41.67-.65 53.77 14.68 6.2 28.85 7 37.4 5.3 17.81-3.47 20.74-11.1 20.74-11.1s-.17-10.59-.83-27.48c3.02-23.98 3.74-39.85 2.75-43.39Z" style="fill:#455a64"/><path d="M233.07 124.26a.77.77 0 0 1 .45-1l36.34-14.62a2.69 2.69 0 0 1 1.68.12l1.1.46a2.43 2.43 0 0 1 1.23 1.09l8.93 23.42a.76.76 0 0 1-.45 1L246 149.35a2.69 2.69 0 0 1-1.68-.12l-1.1-.46a2.46 2.46 0 0 1-1.24-1.09Z" style="fill:#2dd4bf"/><path d="m233.09 123.69 2.77 1.15 37.54-15.11a3 3 0 0 0-.76-.48l-1.1-.46a2.62 2.62 0 0 0-1.68-.12l-36.34 14.62a.81.81 0 0 0-.43.4Z" style="fill:#fff;opacity:.4"/><path d="m233.07 124.26 8.93 23.42a2.46 2.46 0 0 0 1.24 1.09l1.1.46.26.09.36.08a3.77 3.77 0 0 0 .66 0h.24a.68.68 0 0 1-.4 0 .69.69 0 0 1-.41-.41l-8.93-23.41a.33.33 0 0 1 .24-.48l-.5-.21-2.77-1.15a.75.75 0 0 0-.02.52Z" style="opacity:.2"/><path d="m235.86 124.84 21.95 6.68c1.57.48 3 .22 3.51-.63l1.87-3.25 10.34-18-9.65 18.13 18.93 6a.75.75 0 0 1 0 .57l-18.92-6.48-2.11 4c-.48.91-2.07 1.16-3.72.6l-3-1-9.6 17.94a.69.69 0 0 1-.41-.41l-.15-.39 10.1-17.22Z" style="opacity:.2"/><path d="M294.9 143.25c-6.75 8.66-16.2 20.84-21.54 28.06-3.84-3.69-17.83-16.91-19.27-19-1.61-2.32-1.54-5.5-2.87-8.9-1.08-2.78-3.52-6.21-4.15-7.63-1.15-2.6-3.68-3.89-3.72-.09 0 3.16 1.5 6.92 1.33 7.64-.08.31-1.33-.32-2.69-1.6a12.65 12.65 0 0 1-1.62-1.88l-2.84-3.85-2-5.15s-.79.11-1.79 2.49c-2.88 6.86-2.5 14.37 3.05 20.42 3.29 3.59 8.83 8.5 14.58 15.4S267.9 188 272.5 190.65c4.14 2.38 9.19-1.38 15-7.26 8.15-8.21 20.75-22 20.75-22s9.4-15.94 3.92-31.77c-6.87.26-8.65 2.58-17.27 13.63Z" style="fill:#ffa8a7"/><path d="M314.42 129s-6.63.43-10.85 2.58c-1.13.58-4.37 4.1-7.45 8.22-6 8.09-16.59 22.11-16.59 22.11s.2 13.29 13.23 17c0 0 13.05-13.39 16.56-17.53 4.57-5.38 9.03-21.38 5.1-32.38Z" style="fill:#37474f"/></svg>