<svg xmlns="http://www.w3.org/2000/svg" viewBox="0 0 135 90" fill="none"><path fill="#00DC82" d="M74.228 87.873h49.186a9.107 9.107 0 0 0 4.45-1.156 8.76 8.76 0 0 0 3.257-3.16 8.426 8.426 0 0 0 1.191-4.317 8.433 8.433 0 0 0-1.194-4.316L98.086 19.428a8.768 8.768 0 0 0-3.257-3.16 9.11 9.11 0 0 0-4.449-1.156 9.11 9.11 0 0 0-4.449 1.156 8.767 8.767 0 0 0-3.257 3.16l-8.446 14.2L57.715 5.86a8.773 8.773 0 0 0-3.258-3.159 9.115 9.115 0 0 0-4.45-1.156 9.115 9.115 0 0 0-4.45 1.156 8.773 8.773 0 0 0-3.258 3.16L1.195 74.923A8.431 8.431 0 0 0 0 79.24a8.43 8.43 0 0 0 1.19 4.317 8.768 8.768 0 0 0 3.258 3.16 9.11 9.11 0 0 0 4.45 1.156h30.875c12.233 0 21.254-5.212 27.462-15.38l15.07-25.317 8.073-13.549 24.226 40.697H82.305l-8.077 13.55ZM39.27 74.31l-21.546-.004 32.298-54.26 16.116 27.13-10.79 18.133c-4.123 6.598-8.806 9.002-16.078 9.002Z"/></svg>