<svg xmlns="http://www.w3.org/2000/svg" viewBox="0 0 48 48"><path fill="#07b6d5" d="M23.496 10.871c-7.754.246-10.055 5.785-10.586 8.785.692-1.113 2.86-3.55 6.05-3.55 3.72 0 6.552 4.152 8.278 5.445 2.102 1.574 6.32 3.656 11.86 1.969 4.414-1.344 6.46-6.032 6.91-8.254-2.137 2.902-5.375 4.648-9.383 2.59-2.762-1.415-4.824-7.247-13.129-6.985ZM12.527 24.047c-7.75.246-10.054 5.785-10.582 8.785.688-1.113 2.856-3.55 6.047-3.55 3.719 0 6.551 4.152 8.281 5.445 2.098 1.574 6.317 3.656 11.856 1.968 4.414-1.343 6.465-6.03 6.91-8.254-2.137 2.903-5.375 4.649-9.383 2.59-2.761-1.414-4.824-7.246-13.129-6.984Zm0 0"/></svg>